<svg width="9" height="17" viewBox="0 0 9 17" fill="none" xmlns="http://www.w3.org/2000/svg">
<path d="M8.18677 1.98485C8.61581 1.55962 8.6189 0.867105 8.19367 0.438068C7.76844 0.00903065 7.07593 0.00594104 6.64689 0.431167L4.02957 3.02523C3.04378 4.00223 2.23809 4.80074 1.6667 5.51222C1.07254 6.25207 0.642426 7.00302 0.52753 7.90444C0.477151 8.29968 0.477151 8.69966 0.52753 9.09491C0.642426 9.99633 1.07254 10.7473 1.6667 11.4871C2.23808 12.1986 3.04377 12.9971 4.02955 13.9741L6.64689 16.5682C7.07593 16.9934 7.76844 16.9903 8.19367 16.5613C8.6189 16.1322 8.61581 15.4397 8.18677 15.0145L5.61577 12.4663C4.57234 11.4322 3.85659 10.7205 3.37228 10.1174C2.90182 9.53159 2.74043 9.15532 2.69747 8.81833C2.6705 8.60673 2.6705 8.39262 2.69747 8.18102C2.74043 7.84403 2.90182 7.46776 3.37228 6.88195C3.85659 6.27889 4.57234 5.56717 5.61577 4.53301L8.18677 1.98485Z" fill="#FF2929"/>
</svg>
