<svg width="52" height="58" viewBox="0 0 52 58" fill="none" xmlns="http://www.w3.org/2000/svg">
<path fill-rule="evenodd" clip-rule="evenodd" d="M25.9998 29.6663C21.9498 29.6663 18.6665 32.9496 18.6665 36.9997C18.6665 41.0498 21.9498 44.333 25.9998 44.333C30.0499 44.333 33.3332 41.0498 33.3332 36.9997C33.3332 32.9496 30.0499 29.6663 25.9998 29.6663ZM22.6665 36.9997C22.6665 35.1587 24.1589 33.6663 25.9998 33.6663C27.8408 33.6663 29.3332 35.1587 29.3332 36.9997C29.3332 38.8406 27.8408 40.333 25.9998 40.333C24.1589 40.333 22.6665 38.8406 22.6665 36.9997Z" fill="white"/>
<path fill-rule="evenodd" clip-rule="evenodd" d="M25.9998 0.333008C17.5315 0.333008 10.6665 7.19798 10.6665 15.6663V17.0605L10.5949 17.0835C5.92687 18.6002 2.26705 22.26 0.750311 26.9281C-0.00135358 29.2415 -0.000916783 32.018 -0.000200733 36.5681V37.4312C-0.000916783 41.9813 -0.00135358 44.7579 0.750311 47.0713C2.26705 51.7393 5.92687 55.3991 10.5949 56.9159C12.9083 57.6675 15.6848 57.6671 20.2349 57.6664H31.7648C36.3148 57.6671 39.0914 57.6675 41.4048 56.9159C46.0728 55.3991 49.7326 51.7393 51.2494 47.0713C52.001 44.7579 52.0006 41.9813 51.9999 37.4313V36.568C52.0006 32.018 52.001 29.2415 51.2494 26.9281C49.7326 22.26 46.0728 18.6002 41.4048 17.0835L41.3332 17.0605V15.6663C41.3332 7.19798 34.4682 0.333008 25.9998 0.333008ZM20.4426 16.333C18.098 16.3329 16.2268 16.3328 14.6665 16.4212V15.6663C14.6665 9.40711 19.7406 4.33301 25.9998 4.33301C32.2591 4.33301 37.3332 9.40711 37.3332 15.6663V16.4212C35.7729 16.3328 33.9016 16.3329 31.5571 16.333H20.4426ZM12.9988 20.6085C14.5924 20.34 16.7416 20.333 20.6665 20.333H31.3332C35.2581 20.333 37.4073 20.34 39.0009 20.6085C39.4416 20.6827 39.8216 20.7749 40.1687 20.8877C43.619 22.0088 46.3241 24.7139 47.4451 28.1641C47.9752 29.7954 47.9998 31.8806 47.9998 36.9997C47.9998 42.1188 47.9752 44.204 47.4451 45.8352C46.3241 49.2855 43.619 51.9906 40.1687 53.1117C38.5375 53.6417 36.4523 53.6663 31.3332 53.6663H20.6665C15.5474 53.6663 13.4622 53.6417 11.831 53.1117C8.38069 51.9906 5.67561 49.2855 4.55454 45.8352C4.02452 44.204 3.99984 42.1188 3.99984 36.9997C3.99984 31.8806 4.02452 29.7954 4.55454 28.1641C5.67561 24.7139 8.38069 22.0088 11.831 20.8877C12.1781 20.7749 12.5581 20.6827 12.9988 20.6085Z" fill="white"/>
</svg>
