<svg width="28" height="20" viewBox="0 0 28 20" fill="none" xmlns="http://www.w3.org/2000/svg">
<path fill-rule="evenodd" clip-rule="evenodd" d="M16.0673 0.882814C15.0487 0.882784 14.1992 0.882759 13.5249 0.966932C12.8131 1.05578 12.1705 1.25122 11.6541 1.73066C11.1377 2.2101 10.9272 2.80673 10.8315 3.46756C10.7822 3.80774 10.7597 4.19592 10.7494 4.63123C10.6238 4.21049 10.5051 3.84368 10.3768 3.53366C10.1762 3.04881 9.9196 2.61764 9.49005 2.283C9.21144 2.06595 8.89407 1.89583 8.5523 1.78034C8.02537 1.60228 7.49489 1.61156 6.9423 1.69266C6.4148 1.77008 5.77992 1.92803 5.01902 2.11734L4.9754 2.12819C1.83365 2.90977 -0.0308079 5.90797 0.811022 8.82485C1.05509 9.67052 1.79989 10.3113 2.72667 10.473L3.32905 10.5781C4.75171 10.8262 5.23263 12.4926 4.13422 13.3679L3.53903 13.8422C2.903 14.3491 2.6364 15.1497 2.85335 15.9014C2.90166 16.0688 2.97292 16.2297 3.0654 16.3802L3.27782 16.726C4.25702 18.3198 6.0816 19.3037 8.05795 19.3037L11.6634 19.3037L11.5912 19.3037H21.2912C24.5438 19.3037 27.1806 16.8557 27.1806 13.8359C27.1806 12.9604 26.6398 12.1625 25.7896 11.7837L25.2371 11.5374C23.9321 10.9558 23.9321 9.23071 25.2371 8.64914L25.7897 8.4029C26.6398 8.02404 27.1806 7.22611 27.1806 6.35061C27.1806 3.33083 24.5438 0.882816 21.2912 0.882816L16.0673 0.882814ZM12.4417 10.714C12.4418 10.7227 12.4417 10.7313 12.4415 10.74L12.4296 10.8566L12.4415 11.1459C12.4415 11.5819 12.0608 11.9354 11.5912 11.9354C11.1216 11.9354 10.7409 11.5819 10.7409 11.1459V10.8221L9.83191 7.54541L9.31131 5.74156C9.09272 4.98414 8.94489 4.47588 8.78931 4.09994C8.6392 3.7372 8.51502 3.58457 8.39689 3.49254C8.27024 3.39388 8.12599 3.31655 7.97064 3.26405C7.82572 3.21508 7.62126 3.19156 7.20784 3.25223C6.77938 3.31511 6.23137 3.45038 5.41556 3.65333C3.18106 4.20921 1.855 6.34162 2.45373 8.41619C2.52852 8.67531 2.75673 8.87165 3.0407 8.92119L3.64308 9.02627C6.46803 9.51905 7.42298 12.8279 5.24189 14.566L4.6467 15.0403C4.50697 15.1517 4.4484 15.3276 4.49606 15.4927C4.50667 15.5295 4.52233 15.5648 4.54265 15.5979L4.75506 15.9437C5.43165 17.0449 6.69237 17.7248 8.05795 17.7248H21.2912C23.6046 17.7248 25.4799 15.9837 25.4799 13.8359C25.4799 13.5677 25.3142 13.3232 25.0537 13.2071L24.5012 12.9609C21.9098 11.8061 21.9098 8.3805 24.5012 7.2257L25.0537 6.97945C25.3142 6.86336 25.4799 6.61887 25.4799 6.35061C25.4799 4.20286 23.6046 2.46175 21.2912 2.46175H16.1263C15.0333 2.46175 14.2991 2.46343 13.7515 2.53179C13.2283 2.5971 13.0044 2.70996 12.8566 2.84714C12.7089 2.98431 12.5873 3.1922 12.517 3.67795C12.4433 4.1864 12.4415 4.86804 12.4415 5.88278V10.7054C12.4416 10.7082 12.4416 10.7111 12.4417 10.714Z" fill="white"/>
<path d="M12.4415 5.88278C12.4415 5.44677 12.0608 5.09331 11.5911 5.09331C11.1215 5.09331 10.7408 5.44677 10.7408 5.88278V7.14593C10.7408 7.58194 11.1215 7.9354 11.5911 7.9354C12.0608 7.9354 12.4415 7.58194 12.4415 7.14593L12.4415 5.88278Z" fill="white"/>
<path d="M12.4415 11.1459C12.4415 10.7099 12.0608 11.9354 11.5912 11.9354C11.1216 11.9354 10.7408 10.4994 10.7408 10.9354V13.4617C10.7408 13.8977 11.1215 14.2511 11.5911 14.2511C12.0608 14.2511 12.4415 13.8977 12.4415 13.4617L12.4415 11.1459Z" fill="white"/>
<path d="M12.4415 17.2511C12.4415 16.8151 12.0608 16.4617 11.5911 16.4617C11.1215 16.4617 10.7408 16.8151 10.7408 17.2511V18.5143C10.7408 18.9503 11.1216 19.3037 11.5912 19.3037C12.0608 19.3037 12.4415 18.9503 12.4415 18.5143V17.2511Z" fill="white"/>
</svg>
