<svg width="17" height="17" viewBox="0 0 17 17" fill="none" xmlns="http://www.w3.org/2000/svg">
<path d="M4.02352 1.70684C4.268 1.52526 4.30763 1.19406 4.11205 0.967078C3.91647 0.7401 3.55973 0.703299 3.31526 0.884882L1.42564 2.28838C1.18116 2.46996 1.14152 2.80117 1.3371 3.02815C1.53268 3.25513 1.88942 3.29193 2.1339 3.11034L4.02352 1.70684Z" fill="#767676"/>
<path d="M13.8496 0.884882C13.6051 0.703299 13.2483 0.7401 13.0528 0.967078C12.8572 1.19406 12.8968 1.52526 13.1413 1.70684L15.0309 3.11034C15.2754 3.29193 15.6321 3.25513 15.8277 3.02815C16.0233 2.80117 15.9837 2.46996 15.7392 2.28838L13.8496 0.884882Z" fill="#767676"/>
<path d="M9.1493 6.20811C9.1493 5.91744 8.89549 5.6818 8.58241 5.6818C8.26933 5.6818 8.01552 5.91744 8.01552 6.20811V9.15956C8.01552 9.38327 7.92346 9.59853 7.75816 9.7613L6.65824 10.8444C6.44347 11.0559 6.45403 11.389 6.68183 11.5884C6.90963 11.7878 7.26841 11.778 7.48318 11.5665L8.5831 10.4834C8.94676 10.1253 9.1493 9.65173 9.1493 9.15956V6.20811Z" fill="#767676"/>
<path fill-rule="evenodd" clip-rule="evenodd" d="M8.58241 1.4713C4.09489 1.4713 0.457031 4.84878 0.457031 9.01511C0.457031 13.1814 4.09489 16.5589 8.58241 16.5589C13.0699 16.5589 16.7078 13.1814 16.7078 9.01511C16.7078 4.84878 13.0699 1.4713 8.58241 1.4713ZM1.5908 9.01511C1.5908 5.43013 4.72105 2.52392 8.58241 2.52392C12.4438 2.52392 15.574 5.43013 15.574 9.01511C15.574 12.6001 12.4438 15.5063 8.58241 15.5063C4.72105 15.5063 1.5908 12.6001 1.5908 9.01511Z" fill="#767676"/>
</svg>
