<svg width="12" height="8" viewBox="0 0 12 8" fill="none" xmlns="http://www.w3.org/2000/svg">
<path d="M3.97481 1.39374C4.14642 1.22365 4.14766 0.946647 3.97757 0.775032C3.80748 0.603417 3.53047 0.602181 3.35885 0.772271L2.31193 1.8099C1.91761 2.2007 1.59533 2.5201 1.36678 2.80469C1.12911 3.10063 0.957068 3.40101 0.91111 3.76158C0.890958 3.91968 0.890958 4.07967 0.91111 4.23777C0.957068 4.59834 1.12911 4.89872 1.36678 5.19466C1.59533 5.47925 1.91761 5.79865 2.31193 6.18946L3.35885 7.22708C3.53047 7.39717 3.80748 7.39593 3.97757 7.22432C4.14766 7.0527 4.14642 6.7757 3.97481 6.60561L2.94641 5.58634C2.52904 5.17268 2.24273 4.88799 2.04901 4.64676C1.98605 4.56837 1.93693 4.49936 1.89879 4.43717H10.6668C10.9085 4.43717 11.1043 4.2413 11.1043 3.99967C11.1043 3.75805 10.9085 3.56217 10.6668 3.56217H1.89879C1.93693 3.49999 1.98605 3.43098 2.04901 3.35259C2.24273 3.11136 2.52904 2.82667 2.94641 2.41301L3.97481 1.39374Z" fill="#EDEDED"/>
</svg>
