<svg width="62" height="63" viewBox="0 0 62 63" fill="none" xmlns="http://www.w3.org/2000/svg">
<path fill-rule="evenodd" clip-rule="evenodd" d="M36.4906 20.6554C34.3415 19.2791 32.5867 18.1553 31.1398 17.4152C29.6859 16.6715 28.172 16.1105 26.5786 16.2963C24.2757 16.5648 22.2311 17.8991 20.9239 19.8948C20.0367 21.2492 19.7262 22.893 19.5816 24.6412C19.4375 26.3841 19.4375 28.6178 19.4375 31.3846V31.6152C19.4375 34.382 19.4375 36.6159 19.5816 38.3588C19.7262 40.107 20.0367 41.7508 20.9239 43.1052C22.2311 45.1009 24.2757 46.4352 26.5786 46.7037C28.172 46.8895 29.6859 46.3285 31.1398 45.5848C32.5867 44.8447 34.3415 43.7209 36.4907 42.3445L36.6941 42.2143C38.8454 40.8367 40.5997 39.7133 41.8991 38.695C43.2184 37.6612 44.3621 36.5194 44.9761 34.9898C45.8691 32.7653 45.8691 30.2347 44.9761 28.0102C44.3621 26.4806 43.2184 25.3388 41.8991 24.305C40.5997 23.2867 38.8455 22.1634 36.6943 20.7858L36.4906 20.6554ZM27.0936 21.0789C27.3356 21.0507 27.8578 21.0989 29.0994 21.734C30.325 22.361 31.8923 23.3616 34.1695 24.8199C36.4457 26.2775 38.0121 27.2835 39.1168 28.1492C40.2219 29.0152 40.5718 29.5246 40.7084 29.865C41.125 30.9027 41.125 32.0973 40.7084 33.135C40.5718 33.4754 40.2219 33.9848 39.1168 34.8508C38.0121 35.7165 36.4457 36.7225 34.1695 38.1801C31.8923 39.6384 30.325 40.639 29.0994 41.266C27.8578 41.9011 27.3356 41.9493 27.0936 41.9211C26.1948 41.8163 25.3307 41.2881 24.7456 40.3948C24.548 40.0932 24.3162 39.4767 24.1896 37.9462C24.0645 36.4346 24.0625 34.4092 24.0625 31.5C24.0625 28.5908 24.0645 26.5654 24.1896 25.0538C24.3162 23.5233 24.548 22.9068 24.7456 22.6052C25.3307 21.7119 26.1948 21.1837 27.0936 21.0789Z" fill="#FF2929"/>
<path fill-rule="evenodd" clip-rule="evenodd" d="M44.7625 0.615711C41.2409 0.218703 36.8022 0.218724 31.1395 0.21875H30.8605C25.1978 0.218724 20.7591 0.218703 17.2375 0.615711C13.6437 1.02085 10.7319 1.86246 8.24573 3.74199C6.74061 4.87985 5.417 6.25712 4.32347 7.82325C2.51717 10.4102 1.70835 13.4401 1.319 17.1795C0.937455 20.8439 0.937475 25.4626 0.9375 31.3548V31.6452C0.937475 37.5374 0.937455 42.1561 1.319 45.8205C1.70835 49.5599 2.51717 52.5898 4.32347 55.1767C5.417 56.7429 6.74061 58.1201 8.24573 59.258C10.7319 61.1375 13.6437 61.9791 17.2375 62.3843C20.759 62.7813 25.1977 62.7813 30.8602 62.7812H31.1396C36.8021 62.7813 41.241 62.7813 44.7625 62.3843C48.3563 61.9791 51.2681 61.1375 53.7543 59.258C55.2594 58.1202 56.583 56.7429 57.6765 55.1767C59.4828 52.5898 60.2916 49.5599 60.681 45.8205C61.0625 42.1562 61.0625 37.5376 61.0625 31.6455V31.3547C61.0625 25.4627 61.0625 20.8438 60.681 17.1795C60.2916 13.4401 59.4828 10.4102 57.6765 7.82325C56.583 6.25712 55.2594 4.87985 53.7543 3.74199C51.2681 1.86246 48.3563 1.02085 44.7625 0.615711ZM10.9642 7.63538C12.5306 6.45123 14.5354 5.76099 17.7356 5.40021C20.9791 5.03455 25.1677 5.03125 31 5.03125C36.8323 5.03125 41.0209 5.03455 44.2644 5.40021C47.4646 5.76099 49.4694 6.45123 51.0358 7.63538C52.1482 8.47641 53.1266 9.4944 53.9348 10.652C55.0728 12.2818 55.7362 14.3679 56.0829 17.6979C56.4343 21.0729 56.4375 25.4312 56.4375 31.5C56.4375 37.5688 56.4343 41.9271 56.0829 45.3021C55.7362 48.6321 55.0728 50.7182 53.9348 52.348C53.1266 53.5056 52.1482 54.5236 51.0358 55.3646C49.4694 56.5488 47.4646 57.239 44.2644 57.5998C41.0209 57.9654 36.8323 57.9688 31 57.9688C25.1677 57.9688 20.9791 57.9654 17.7356 57.5998C14.5354 57.239 12.5306 56.5488 10.9642 55.3646C9.85176 54.5236 8.87344 53.5056 8.06517 52.348C6.92716 50.7182 6.26381 48.6321 5.91709 45.3021C5.56568 41.9271 5.5625 37.5688 5.5625 31.5C5.5625 25.4312 5.56568 21.0729 5.91709 17.6979C6.26381 14.3679 6.92716 12.2818 8.06517 10.652C8.87343 9.4944 9.85176 8.47641 10.9642 7.63538Z" fill="#FF2929"/>
</svg>
